<svg xmlns="http://www.w3.org/2000/svg" xmlns:xlink="http://www.w3.org/1999/xlink" height="200" width="400"><polygon points="0,200 0,100 1,101 2,100 3,101 4,100 5,99 6,98 7,99 8,98 9,97 10,98 11,97 12,98 13,99 14,98 15,99 16,98 17,97 18,96 19,97 20,98 21,97 22,96 23,97 24,98 25,99 26,100 27,101 28,100 29,99 30,98 31,97 32,96 33,97 34,98 35,97 36,98 37,99 38,100 39,99 40,98 41,97 42,96 43,95 44,94 45,93 46,92 47,91 48,90 49,89 50,88 51,89 52,88 53,89 54,88 55,87 56,88 57,87 58,88 59,87 60,86 61,87 62,86 63,85 64,84 65,83 66,84 67,83 68,82 69,81 70,82 71,83 72,82 73,83 74,84 75,85 76,86 77,87 78,86 79,85 80,86 81,87 82,88 83,87 84,86 85,87 86,86 87,85 88,86 89,87 90,88 91,89 92,88 93,89 94,90 95,89 96,88 97,89 98,90 99,89 100,90 101,89 102,88 103,87 104,88 105,89 106,90 107,89 108,88 109,89 110,88 111,87 112,86 113,87 114,86 115,87 116,86 117,87 118,86 119,87 120,88 121,89 122,88 123,89 124,90 125,89 126,90 127,89 128,90 129,91 130,90 131,91 132,92 133,93 134,94 135,95 136,94 137,95 138,94 139,93 140,94 141,93 142,94 143,93 144,94 145,93 146,94 147,95 148,94 149,93 150,92 151,91 152,90 153,89 154,90 155,91 156,92 157,93 158,94 159,93 160,94 161,93 162,92 163,93 164,94 165,93 166,94 167,95 168,96 169,95 170,96 171,97 172,96 173,95 174,96 175,97 176,96 177,97 178,96 179,97 180,98 181,97 182,96 183,97 184,96 185,97 186,98 187,99 188,98 189,99 190,100 191,99 192,100 193,99 194,98 195,97 196,96 197,95 198,94 199,93 200,92 201,91 202,92 203,93 204,92 205,93 206,92 207,93 208,94 209,95 210,94 211,93 212,92 213,93 214,92 215,91 216,92 217,93 218,94 219,95 220,96 221,95 222,96 223,95 224,94 225,93 226,94 227,95 228,96 229,97 230,96 231,97 232,96 233,97 234,96 235,95 236,96 237,95 238,96 239,95 240,94 241,93 242,94 243,95 244,94 245,93 246,94 247,93 248,92 249,91 250,92 251,91 252,92 253,91 254,92 255,93 256,92 257,93 258,94 259,95 260,96 261,97 262,96 263,97 264,98 265,97 266,96 267,97 268,96 269,95 270,96 271,97 272,98 273,99 274,98 275,97 276,96 277,95 278,96 279,95 280,94 281,93 282,92 283,93 284,92 285,91 286,92 287,93 288,94 289,95 290,94 291,93 292,94 293,93 294,94 295,93 296,92 297,91 298,90 299,91 300,92 301,91 302,90 303,91 304,90 305,89 306,88 307,89 308,90 309,91 310,92 311,93 312,94 313,93 314,92 315,91 316,90 317,91 318,92 319,93 320,94 321,93 322,92 323,93 324,94 325,95 326,96 327,95 328,94 329,95 330,94 331,93 332,92 333,91 334,92 335,91 336,90 337,91 338,92 339,93 340,92 341,93 342,94 343,95 344,94 345,93 346,94 347,95 348,94 349,95 350,94 351,93 352,94 353,95 354,94 355,93 356,92 357,93 358,92 359,91 360,92 361,93 362,92 363,93 364,94 365,93 366,92 367,91 368,90 369,89 370,90 371,89 372,90 373,91 374,92 375,91 376,92 377,91 378,90 379,91 380,92 381,93 382,94 383,93 384,92 385,91 386,92 387,93 388,92 389,91 390,92 391,93 392,94 393,95 394,94 395,95 396,94 397,95 398,96 399,95 400,200 " style="fill:rgb(93,148,184);stroke:rgb(0,48,84)"></polygon><polygon points="0,200 0,100 1,99 2,98 3,97 4,96 5,97 6,98 7,99 8,98 9,99 10,98 11,97 12,98 13,99 14,100 15,101 16,102 17,103 18,104 19,103 20,102 21,101 22,102 23,103 24,104 25,105 26,106 27,105 28,104 29,105 30,104 31,103 32,104 33,103 34,104 35,103 36,104 37,105 38,104 39,105 40,106 41,107 42,106 43,105 44,106 45,107 46,106 47,107 48,106 49,105 50,104 51,103 52,102 53,101 54,102 55,103 56,104 57,105 58,106 59,105 60,104 61,103 62,104 63,105 64,106 65,107 66,106 67,105 68,106 69,107 70,108 71,109 72,110 73,111 74,112 75,111 76,112 77,113 78,112 79,111 80,110 81,111 82,110 83,109 84,110 85,111 86,110 87,109 88,108 89,107 90,106 91,107 92,108 93,107 94,106 95,105 96,104 97,105 98,106 99,107 100,108 101,107 102,108 103,109 104,108 105,107 106,108 107,107 108,108 109,109 110,110 111,109 112,108 113,107 114,108 115,107 116,108 117,107 118,106 119,105 120,104 121,105 122,106 123,105 124,104 125,103 126,102 127,101 128,100 129,101 130,102 131,103 132,102 133,103 134,102 135,103 136,104 137,103 138,102 139,101 140,102 141,103 142,102 143,103 144,104 145,103 146,102 147,101 148,102 149,101 150,100 151,101 152,102 153,103 154,104 155,105 156,104 157,103 158,104 159,105 160,104 161,105 162,104 163,105 164,104 165,103 166,102 167,101 168,102 169,101 170,102 171,101 172,102 173,103 174,104 175,103 176,104 177,103 178,102 179,103 180,102 181,103 182,104 183,103 184,104 185,103 186,102 187,101 188,102 189,101 190,102 191,103 192,102 193,103 194,102 195,101 196,100 197,101 198,100 199,99 200,98 201,99 202,98 203,97 204,98 205,99 206,98 207,97 208,96 209,97 210,98 211,97 212,96 213,95 214,96 215,95 216,96 217,95 218,94 219,93 220,94 221,93 222,94 223,95 224,94 225,93 226,92 227,91 228,90 229,91 230,92 231,93 232,92 233,93 234,94 235,93 236,92 237,91 238,90 239,91 240,92 241,91 242,92 243,93 244,94 245,93 246,94 247,95 248,94 249,93 250,92 251,91 252,92 253,91 254,92 255,91 256,90 257,91 258,92 259,93 260,92 261,93 262,94 263,93 264,92 265,91 266,90 267,91 268,90 269,89 270,88 271,87 272,88 273,87 274,88 275,87 276,86 277,87 278,86 279,87 280,86 281,87 282,88 283,89 284,88 285,87 286,88 287,87 288,86 289,87 290,88 291,89 292,90 293,91 294,90 295,89 296,90 297,91 298,92 299,91 300,90 301,91 302,90 303,89 304,88 305,87 306,88 307,87 308,88 309,89 310,88 311,89 312,90 313,91 314,92 315,93 316,92 317,93 318,94 319,95 320,94 321,93 322,94 323,95 324,94 325,95 326,96 327,97 328,98 329,97 330,96 331,97 332,96 333,95 334,94 335,95 336,94 337,93 338,92 339,91 340,90 341,89 342,90 343,91 344,90 345,89 346,88 347,87 348,88 349,89 350,90 351,89 352,90 353,89 354,88 355,87 356,88 357,87 358,88 359,89 360,88 361,89 362,88 363,87 364,86 365,85 366,84 367,85 368,84 369,83 370,84 371,85 372,86 373,87 374,88 375,89 376,88 377,89 378,90 379,89 380,88 381,89 382,90 383,89 384,90 385,91 386,90 387,91 388,90 389,91 390,90 391,91 392,92 393,91 394,92 395,91 396,90 397,91 398,90 399,89 400,200 " style="fill:rgb(99,164,254);stroke:rgb(0,64,154)"></polygon><polygon points="0,200 0,100 1,101 2,102 3,103 4,104 5,105 6,104 7,103 8,102 9,101 10,102 11,103 12,102 13,103 14,102 15,103 16,102 17,101 18,100 19,99 20,100 21,99 22,98 23,97 24,98 25,97 26,98 27,99 28,98 29,99 30,98 31,99 32,98 33,97 34,98 35,97 36,96 37,95 38,96 39,97 40,96 41,97 42,98 43,97 44,96 45,97 46,98 47,97 48,98 49,97 50,96 51,97 52,96 53,95 54,94 55,93 56,94 57,95 58,96 59,95 60,96 61,95 62,94 63,95 64,96 65,95 66,96 67,97 68,96 69,95 70,96 71,97 72,98 73,97 74,98 75,97 76,98 77,99 78,100 79,101 80,102 81,103 82,102 83,101 84,100 85,101 86,100 87,101 88,100 89,101 90,100 91,101 92,100 93,101 94,100 95,99 96,98 97,97 98,96 99,95 100,94 101,93 102,94 103,95 104,94 105,95 106,94 107,95 108,94 109,93 110,92 111,93 112,94 113,95 114,94 115,95 116,96 117,97 118,98 119,99 120,98 121,97 122,98 123,99 124,98 125,97 126,98 127,99 128,100 129,101 130,102 131,103 132,104 133,105 134,106 135,105 136,106 137,107 138,106 139,107 140,108 141,107 142,108 143,107 144,108 145,107 146,106 147,105 148,104 149,103 150,102 151,101 152,100 153,101 154,102 155,101 156,102 157,103 158,104 159,105 160,104 161,105 162,104 163,103 164,104 165,105 166,106 167,105 168,104 169,103 170,104 171,105 172,104 173,103 174,104 175,103 176,104 177,105 178,104 179,103 180,104 181,105 182,106 183,107 184,106 185,107 186,106 187,105 188,104 189,105 190,104 191,103 192,104 193,103 194,104 195,105 196,106 197,107 198,108 199,109 200,110 201,111 202,110 203,109 204,108 205,107 206,106 207,105 208,104 209,105 210,104 211,103 212,102 213,103 214,102 215,103 216,102 217,101 218,100 219,99 220,98 221,99 222,100 223,99 224,98 225,97 226,98 227,99 228,100 229,101 230,102 231,101 232,100 233,101 234,100 235,99 236,98 237,97 238,96 239,97 240,96 241,95 242,94 243,93 244,94 245,95 246,94 247,93 248,94 249,95 250,94 251,95 252,96 253,97 254,98 255,97 256,96 257,95 258,94 259,93 260,94 261,95 262,96 263,97 264,98 265,97 266,98 267,97 268,98 269,99 270,100 271,101 272,100 273,99 274,100 275,99 276,98 277,99 278,100 279,101 280,100 281,99 282,98 283,99 284,100 285,101 286,100 287,99 288,100 289,101 290,102 291,101 292,100 293,99 294,98 295,99 296,100 297,99 298,100 299,101 300,102 301,101 302,100 303,99 304,100 305,99 306,100 307,101 308,102 309,103 310,102 311,103 312,104 313,105 314,104 315,105 316,106 317,105 318,104 319,103 320,102 321,103 322,104 323,103 324,104 325,105 326,104 327,105 328,104 329,103 330,104 331,105 332,104 333,103 334,102 335,103 336,104 337,105 338,104 339,105 340,106 341,105 342,104 343,103 344,102 345,103 346,102 347,103 348,102 349,101 350,100 351,99 352,100 353,101 354,100 355,101 356,100 357,99 358,98 359,99 360,100 361,99 362,98 363,97 364,96 365,97 366,96 367,97 368,96 369,97 370,98 371,99 372,98 373,97 374,98 375,97 376,98 377,99 378,98 379,99 380,98 381,97 382,98 383,97 384,96 385,95 386,94 387,95 388,96 389,97 390,96 391,97 392,98 393,97 394,96 395,95 396,94 397,95 398,94 399,93 400,200 " style="fill:rgb(245,240,67);stroke:rgb(145,140,0)"></polygon><polygon points="0,200 0,100 1,101 2,102 3,101 4,102 5,101 6,100 7,101 8,102 9,103 10,102 11,103 12,102 13,101 14,102 15,103 16,104 17,103 18,102 19,101 20,100 21,101 22,100 23,101 24,100 25,99 26,98 27,99 28,100 29,99 30,98 31,99 32,98 33,99 34,98 35,99 36,100 37,101 38,102 39,101 40,102 41,101 42,102 43,101 44,102 45,101 46,102 47,103 48,104 49,105 50,106 51,105 52,104 53,103 54,104 55,105 56,106 57,107 58,106 59,105 60,106 61,107 62,108 63,107 64,106 65,105 66,104 67,105 68,106 69,107 70,106 71,107 72,106 73,107 74,108 75,109 76,110 77,111 78,112 79,113 80,114 81,113 82,114 83,113 84,112 85,111 86,110 87,111 88,112 89,113 90,114 91,113 92,112 93,111 94,110 95,109 96,108 97,107 98,108 99,107 100,108 101,109 102,110 103,109 104,110 105,111 106,112 107,113 108,114 109,113 110,114 111,115 112,116 113,115 114,116 115,117 116,118 117,119 118,120 119,121 120,120 121,121 122,122 123,121 124,120 125,121 126,120 127,121 128,120 129,121 130,120 131,119 132,120 133,121 134,122 135,123 136,124 137,123 138,122 139,121 140,120 141,119 142,120 143,119 144,120 145,121 146,120 147,121 148,122 149,123 150,122 151,123 152,124 153,125 154,126 155,127 156,126 157,127 158,128 159,127 160,126 161,125 162,126 163,125 164,124 165,125 166,126 167,125 168,124 169,125 170,124 171,125 172,124 173,123 174,124 175,125 176,126 177,127 178,128 179,127 180,128 181,129 182,128 183,127 184,126 185,125 186,126 187,127 188,128 189,129 190,130 191,129 192,130 193,129 194,128 195,129 196,128 197,129 198,130 199,131 200,130 201,129 202,130 203,129 204,128 205,129 206,128 207,127 208,128 209,127 210,126 211,125 212,124 213,123 214,124 215,125 216,126 217,127 218,128 219,127 220,128 221,127 222,128 223,127 224,128 225,129 226,130 227,131 228,132 229,133 230,134 231,135 232,134 233,135 234,134 235,135 236,136 237,135 238,134 239,135 240,136 241,137 242,138 243,137 244,136 245,135 246,134 247,135 248,134 249,135 250,134 251,135 252,134 253,135 254,136 255,135 256,136 257,137 258,136 259,135 260,134 261,135 262,134 263,135 264,136 265,137 266,138 267,139 268,140 269,141 270,142 271,141 272,140 273,141 274,142 275,143 276,144 277,145 278,146 279,145 280,146 281,147 282,148 283,149 284,150 285,151 286,152 287,151 288,150 289,151 290,152 291,153 292,152 293,151 294,152 295,153 296,154 297,155 298,156 299,157 300,156 301,155 302,154 303,155 304,156 305,155 306,156 307,155 308,154 309,153 310,152 311,151 312,150 313,149 314,150 315,149 316,148 317,149 318,150 319,151 320,150 321,149 322,150 323,151 324,152 325,151 326,150 327,151 328,150 329,151 330,152 331,151 332,150 333,149 334,148 335,147 336,146 337,147 338,148 339,149 340,148 341,147 342,148 343,149 344,148 345,147 346,148 347,147 348,146 349,147 350,148 351,149 352,150 353,149 354,148 355,147 356,148 357,147 358,148 359,147 360,148 361,149 362,148 363,147 364,146 365,147 366,148 367,149 368,148 369,147 370,148 371,147 372,148 373,149 374,148 375,147 376,148 377,147 378,146 379,145 380,144 381,143 382,144 383,145 384,144 385,145 386,146 387,147 388,148 389,147 390,148 391,147 392,146 393,145 394,146 395,147 396,148 397,147 398,146 399,147 400,200 " style="fill:rgb(180,104,99);stroke:rgb(80,4,0)"></polygon><polygon points="0,200 0,100 1,101 2,100 3,101 4,102 5,103 6,104 7,103 8,102 9,101 10,102 11,103 12,102 13,101 14,100 15,99 16,98 17,99 18,98 19,97 20,98 21,99 22,100 23,101 24,100 25,101 26,102 27,103 28,102 29,103 30,104 31,105 32,106 33,107 34,108 35,109 36,110 37,109 38,110 39,109 40,110 41,111 42,112 43,111 44,112 45,113 46,114 47,113 48,112 49,113 50,114 51,113 52,114 53,113 54,114 55,115 56,116 57,115 58,116 59,117 60,118 61,117 62,116 63,117 64,116 65,115 66,114 67,113 68,112 69,111 70,110 71,111 72,110 73,109 74,110 75,111 76,112 77,111 78,112 79,111 80,110 81,111 82,112 83,111 84,112 85,113 86,112 87,111 88,112 89,111 90,110 91,109 92,108 93,109 94,108 95,109 96,108 97,109 98,110 99,109 100,110 101,111 102,112 103,111 104,110 105,111 106,112 107,111 108,112 109,113 110,114 111,113 112,112 113,111 114,110 115,109 116,108 117,109 118,108 119,107 120,108 121,107 122,106 123,105 124,104 125,105 126,106 127,107 128,108 129,107 130,106 131,105 132,104 133,105 134,106 135,107 136,108 137,109 138,110 139,111 140,110 141,109 142,110 143,109 144,110 145,111 146,112 147,111 148,112 149,111 150,110 151,111 152,110 153,111 154,112 155,113 156,114 157,115 158,116 159,117 160,116 161,117 162,116 163,115 164,116 165,117 166,116 167,115 168,114 169,113 170,112 171,113 172,114 173,113 174,114 175,113 176,114 177,113 178,114 179,113 180,112 181,111 182,112 183,113 184,112 185,113 186,112 187,111 188,112 189,113 190,114 191,115 192,114 193,113 194,112 195,111 196,110 197,109 198,108 199,107 200,108 201,109 202,108 203,107 204,108 205,109 206,110 207,109 208,110 209,111 210,110 211,109 212,108 213,107 214,108 215,109 216,110 217,109 218,108 219,107 220,108 221,109 222,110 223,109 224,110 225,111 226,112 227,111 228,112 229,111 230,110 231,109 232,108 233,109 234,108 235,109 236,110 237,111 238,112 239,111 240,112 241,113 242,112 243,111 244,112 245,111 246,110 247,109 248,110 249,109 250,110 251,111 252,110 253,109 254,110 255,109 256,110 257,109 258,110 259,109 260,108 261,109 262,110 263,109 264,108 265,107 266,108 267,109 268,110 269,111 270,112 271,113 272,114 273,115 274,114 275,115 276,116 277,117 278,116 279,115 280,116 281,115 282,116 283,117 284,116 285,115 286,116 287,115 288,116 289,115 290,114 291,113 292,112 293,111 294,112 295,111 296,110 297,109 298,110 299,109 300,110 301,109 302,108 303,109 304,110 305,111 306,112 307,111 308,112 309,111 310,110 311,109 312,108 313,109 314,110 315,111 316,110 317,109 318,110 319,111 320,110 321,111 322,110 323,111 324,112 325,111 326,110 327,111 328,112 329,111 330,110 331,109 332,108 333,107 334,106 335,105 336,106 337,107 338,108 339,109 340,108 341,107 342,108 343,109 344,110 345,111 346,110 347,109 348,110 349,111 350,112 351,113 352,112 353,111 354,110 355,111 356,110 357,111 358,112 359,111 360,112 361,113 362,112 363,113 364,114 365,113 366,114 367,115 368,116 369,117 370,116 371,115 372,114 373,113 374,114 375,115 376,114 377,113 378,112 379,111 380,112 381,113 382,112 383,111 384,110 385,109 386,110 387,109 388,108 389,107 390,108 391,109 392,108 393,109 394,108 395,107 396,106 397,107 398,106 399,107 400,200 " style="fill:rgb(171,62,111);stroke:rgb(71,0,11)"></polygon><polygon points="0,200 0,100 1,101 2,100 3,101 4,102 5,103 6,102 7,101 8,100 9,99 10,100 11,99 12,100 13,101 14,102 15,103 16,104 17,103 18,102 19,101 20,100 21,101 22,100 23,101 24,102 25,101 26,100 27,99 28,100 29,99 30,98 31,97 32,96 33,95 34,94 35,95 36,96 37,95 38,94 39,93 40,94 41,93 42,94 43,93 44,94 45,95 46,96 47,97 48,96 49,95 50,94 51,93 52,94 53,95 54,96 55,97 56,96 57,97 58,96 59,95 60,96 61,97 62,96 63,95 64,96 65,95 66,94 67,93 68,92 69,91 70,90 71,89 72,90 73,91 74,90 75,91 76,90 77,91 78,90 79,91 80,90 81,89 82,88 83,89 84,88 85,89 86,88 87,89 88,88 89,89 90,88 91,87 92,86 93,85 94,84 95,85 96,84 97,85 98,86 99,87 100,88 101,89 102,90 103,91 104,90 105,91 106,90 107,89 108,90 109,91 110,92 111,93 112,92 113,93 114,92 115,93 116,94 117,93 118,92 119,93 120,92 121,93 122,94 123,93 124,94 125,95 126,96 127,97 128,96 129,97 130,98 131,99 132,98 133,99 134,98 135,99 136,98 137,97 138,98 139,99 140,100 141,99 142,100 143,101 144,100 145,101 146,100 147,99 148,98 149,97 150,98 151,99 152,100 153,99 154,100 155,99 156,98 157,97 158,98 159,99 160,100 161,101 162,102 163,101 164,102 165,103 166,104 167,105 168,104 169,105 170,104 171,103 172,102 173,103 174,102 175,103 176,102 177,101 178,102 179,103 180,104 181,105 182,106 183,105 184,106 185,105 186,106 187,105 188,106 189,105 190,106 191,105 192,104 193,103 194,102 195,101 196,100 197,99 198,98 199,99 200,100 201,101 202,100 203,99 204,100 205,101 206,100 207,101 208,102 209,103 210,102 211,103 212,102 213,101 214,102 215,101 216,102 217,101 218,102 219,101 220,102 221,101 222,100 223,99 224,98 225,97 226,96 227,95 228,96 229,95 230,94 231,95 232,96 233,95 234,94 235,93 236,94 237,93 238,94 239,95 240,94 241,95 242,96 243,95 244,94 245,95 246,96 247,95 248,96 249,95 250,96 251,97 252,98 253,97 254,96 255,95 256,96 257,95 258,96 259,97 260,96 261,97 262,96 263,97 264,96 265,95 266,94 267,93 268,92 269,91 270,90 271,89 272,88 273,87 274,86 275,87 276,86 277,85 278,86 279,87 280,88 281,87 282,86 283,87 284,88 285,87 286,88 287,87 288,88 289,87 290,88 291,89 292,88 293,87 294,86 295,87 296,88 297,89 298,88 299,87 300,86 301,87 302,86 303,85 304,84 305,83 306,82 307,81 308,80 309,81 310,82 311,83 312,84 313,85 314,86 315,87 316,86 317,87 318,86 319,85 320,84 321,83 322,84 323,83 324,84 325,83 326,82 327,83 328,84 329,83 330,84 331,85 332,86 333,85 334,86 335,85 336,86 337,85 338,84 339,85 340,84 341,83 342,84 343,83 344,84 345,83 346,84 347,85 348,84 349,85 350,84 351,85 352,86 353,85 354,84 355,85 356,86 357,87 358,88 359,87 360,86 361,85 362,86 363,85 364,84 365,83 366,82 367,83 368,82 369,83 370,82 371,81 372,82 373,83 374,84 375,85 376,86 377,85 378,84 379,85 380,86 381,87 382,88 383,87 384,88 385,87 386,86 387,85 388,86 389,87 390,86 391,85 392,84 393,83 394,84 395,85 396,84 397,85 398,86 399,87 400,200 " style="fill:rgb(222,23,219);stroke:rgb(122,0,119)"></polygon><polygon points="0,200 0,100 1,99 2,100 3,99 4,98 5,97 6,98 7,97 8,96 9,97 10,98 11,99 12,98 13,97 14,98 15,97 16,98 17,97 18,98 19,97 20,96 21,95 22,94 23,95 24,94 25,93 26,92 27,93 28,92 29,93 30,92 31,93 32,92 33,91 34,90 35,89 36,90 37,91 38,92 39,91 40,90 41,91 42,90 43,91 44,92 45,93 46,92 47,91 48,90 49,89 50,88 51,89 52,88 53,87 54,86 55,85 56,86 57,85 58,84 59,83 60,84 61,83 62,82 63,81 64,82 65,81 66,80 67,79 68,78 69,77 70,78 71,79 72,80 73,79 74,78 75,79 76,80 77,81 78,82 79,81 80,80 81,81 82,80 83,81 84,82 85,83 86,82 87,81 88,80 89,79 90,78 91,77 92,76 93,77 94,78 95,77 96,76 97,77 98,76 99,75 100,76 101,75 102,74 103,75 104,74 105,73 106,72 107,71 108,72 109,71 110,70 111,69 112,68 113,67 114,68 115,67 116,68 117,67 118,66 119,67 120,66 121,67 122,68 123,67 124,66 125,65 126,66 127,67 128,68 129,69 130,70 131,69 132,70 133,71 134,70 135,71 136,70 137,71 138,72 139,71 140,72 141,71 142,70 143,69 144,68 145,69 146,68 147,69 148,70 149,69 150,68 151,69 152,68 153,69 154,68 155,69 156,68 157,67 158,68 159,67 160,66 161,65 162,66 163,65 164,64 165,65 166,64 167,63 168,64 169,63 170,62 171,61 172,62 173,61 174,60 175,59 176,58 177,59 178,58 179,59 180,58 181,59 182,60 183,61 184,62 185,61 186,62 187,63 188,62 189,61 190,60 191,59 192,60 193,59 194,58 195,57 196,56 197,57 198,58 199,57 200,58 201,59 202,58 203,59 204,60 205,61 206,60 207,59 208,60 209,59 210,60 211,59 212,58 213,59 214,58 215,59 216,60 217,59 218,58 219,57 220,56 221,55 222,54 223,55 224,54 225,53 226,54 227,53 228,52 229,51 230,52 231,53 232,54 233,53 234,52 235,53 236,54 237,55 238,54 239,53 240,52 241,51 242,52 243,51 244,52 245,51 246,52 247,53 248,52 249,51 250,50 251,51 252,52 253,51 254,50 255,51 256,50 257,51 258,52 259,53 260,54 261,53 262,52 263,51 264,50 265,51 266,50 267,49 268,50 269,51 270,52 271,53 272,54 273,53 274,52 275,51 276,50 277,51 278,50 279,51 280,50 281,51 282,52 283,53 284,52 285,53 286,52 287,53 288,54 289,53 290,52 291,53 292,54 293,53 294,52 295,51 296,50 297,49 298,50 299,49 300,48 301,47 302,48 303,49 304,48 305,49 306,50 307,51 308,52 309,53 310,52 311,53 312,52 313,53 314,52 315,51 316,52 317,51 318,50 319,51 320,50 321,51 322,50 323,49 324,48 325,47 326,46 327,47 328,48 329,49 330,50 331,49 332,48 333,47 334,48 335,47 336,46 337,47 338,48 339,49 340,48 341,49 342,48 343,49 344,50 345,51 346,50 347,51 348,50 349,51 350,52 351,53 352,52 353,51 354,50 355,51 356,52 357,51 358,52 359,53 360,52 361,53 362,52 363,53 364,52 365,53 366,52 367,53 368,52 369,51 370,50 371,49 372,50 373,51 374,50 375,49 376,50 377,51 378,52 379,51 380,50 381,49 382,48 383,49 384,50 385,49 386,48 387,49 388,50 389,51 390,52 391,53 392,54 393,55 394,56 395,55 396,54 397,55 398,54 399,55 400,200 " style="fill:rgb(169,211,190);stroke:rgb(69,111,90)"></polygon><polygon points="0,200 0,100 1,99 2,98 3,99 4,100 5,101 6,102 7,101 8,100 9,101 10,102 11,103 12,104 13,105 14,104 15,103 16,102 17,103 18,102 19,101 20,102 21,103 22,104 23,103 24,104 25,105 26,104 27,103 28,104 29,103 30,102 31,103 32,102 33,103 34,102 35,103 36,104 37,103 38,104 39,105 40,104 41,103 42,104 43,103 44,102 45,101 46,102 47,103 48,102 49,101 50,100 51,101 52,102 53,101 54,100 55,99 56,98 57,97 58,98 59,99 60,98 61,99 62,98 63,99 64,98 65,97 66,96 67,97 68,98 69,99 70,100 71,99 72,100 73,101 74,100 75,101 76,102 77,103 78,104 79,103 80,102 81,101 82,102 83,101 84,100 85,99 86,98 87,97 88,96 89,97 90,96 91,95 92,94 93,93 94,92 95,91 96,90 97,91 98,90 99,89 100,90 101,91 102,92 103,91 104,90 105,89 106,90 107,91 108,90 109,89 110,88 111,89 112,90 113,91 114,90 115,91 116,92 117,91 118,92 119,91 120,90 121,91 122,92 123,93 124,92 125,93 126,92 127,93 128,94 129,93 130,92 131,93 132,92 133,93 134,94 135,93 136,92 137,93 138,92 139,91 140,92 141,93 142,92 143,93 144,92 145,93 146,92 147,93 148,92 149,93 150,92 151,93 152,94 153,95 154,96 155,95 156,96 157,95 158,94 159,95 160,96 161,95 162,94 163,95 164,94 165,95 166,96 167,95 168,94 169,95 170,96 171,97 172,96 173,95 174,96 175,97 176,98 177,99 178,100 179,101 180,102 181,103 182,102 183,103 184,104 185,103 186,104 187,103 188,104 189,103 190,102 191,101 192,100 193,99 194,98 195,97 196,98 197,99 198,100 199,99 200,98 201,97 202,98 203,99 204,100 205,101 206,100 207,99 208,100 209,99 210,100 211,101 212,102 213,101 214,102 215,101 216,100 217,101 218,100 219,99 220,98 221,99 222,98 223,97 224,98 225,97 226,98 227,97 228,96 229,95 230,96 231,97 232,96 233,95 234,94 235,93 236,94 237,93 238,92 239,93 240,92 241,91 242,92 243,93 244,92 245,93 246,94 247,95 248,94 249,95 250,94 251,95 252,96 253,97 254,96 255,95 256,94 257,93 258,94 259,95 260,94 261,93 262,92 263,91 264,92 265,91 266,92 267,91 268,90 269,89 270,90 271,91 272,90 273,89 274,88 275,87 276,88 277,89 278,88 279,89 280,88 281,89 282,90 283,89 284,90 285,91 286,90 287,89 288,88 289,89 290,90 291,89 292,90 293,89 294,88 295,89 296,88 297,89 298,90 299,89 300,90 301,89 302,88 303,89 304,88 305,89 306,88 307,87 308,88 309,87 310,88 311,87 312,88 313,89 314,90 315,89 316,88 317,87 318,88 319,89 320,88 321,87 322,88 323,87 324,86 325,85 326,86 327,85 328,86 329,87 330,86 331,85 332,86 333,85 334,86 335,87 336,88 337,89 338,90 339,89 340,88 341,89 342,90 343,91 344,92 345,93 346,94 347,93 348,94 349,93 350,92 351,91 352,92 353,93 354,92 355,93 356,94 357,95 358,94 359,93 360,92 361,93 362,92 363,91 364,90 365,89 366,88 367,87 368,88 369,87 370,86 371,87 372,86 373,85 374,86 375,87 376,88 377,87 378,86 379,85 380,84 381,83 382,84 383,83 384,82 385,81 386,82 387,81 388,80 389,79 390,78 391,77 392,76 393,77 394,76 395,75 396,74 397,75 398,76 399,75 400,200 " style="fill:rgb(176,73,60);stroke:rgb(76,0,0)"></polygon><polygon points="0,200 0,100 1,101 2,100 3,101 4,100 5,99 6,100 7,101 8,102 9,101 10,100 11,99 12,98 13,99 14,100 15,101 16,100 17,101 18,100 19,99 20,100 21,101 22,100 23,99 24,98 25,97 26,98 27,99 28,98 29,99 30,98 31,99 32,100 33,101 34,100 35,101 36,100 37,101 38,102 39,103 40,104 41,103 42,104 43,103 44,102 45,103 46,102 47,101 48,100 49,101 50,100 51,99 52,98 53,99 54,98 55,97 56,98 57,99 58,98 59,99 60,100 61,101 62,102 63,103 64,104 65,103 66,104 67,105 68,106 69,105 70,104 71,105 72,104 73,103 74,102 75,101 76,100 77,99 78,98 79,99 80,100 81,101 82,102 83,101 84,102 85,101 86,102 87,101 88,100 89,101 90,100 91,99 92,100 93,101 94,102 95,101 96,102 97,101 98,100 99,101 100,102 101,101 102,102 103,103 104,102 105,101 106,102 107,101 108,100 109,99 110,98 111,99 112,100 113,99 114,98 115,99 116,100 117,101 118,102 119,101 120,100 121,99 122,100 123,101 124,102 125,101 126,100 127,101 128,102 129,101 130,100 131,101 132,100 133,101 134,102 135,103 136,102 137,101 138,100 139,101 140,102 141,101 142,102 143,101 144,102 145,101 146,102 147,101 148,100 149,99 150,100 151,99 152,98 153,99 154,100 155,99 156,98 157,97 158,96 159,97 160,96 161,97 162,98 163,97 164,98 165,97 166,96 167,95 168,96 169,97 170,96 171,97 172,96 173,97 174,98 175,97 176,96 177,97 178,96 179,97 180,96 181,97 182,96 183,95 184,94 185,93 186,94 187,95 188,94 189,95 190,94 191,93 192,94 193,95 194,94 195,93 196,94 197,95 198,94 199,95 200,96 201,95 202,96 203,97 204,98 205,99 206,98 207,97 208,96 209,95 210,94 211,93 212,94 213,93 214,92 215,93 216,92 217,93 218,92 219,91 220,92 221,91 222,92 223,91 224,92 225,91 226,90 227,89 228,88 229,87 230,86 231,85 232,86 233,87 234,86 235,85 236,84 237,83 238,82 239,83 240,84 241,83 242,82 243,81 244,80 245,81 246,82 247,83 248,84 249,85 250,84 251,85 252,86 253,85 254,86 255,85 256,86 257,85 258,86 259,85 260,84 261,85 262,86 263,87 264,88 265,87 266,86 267,85 268,84 269,83 270,82 271,83 272,82 273,83 274,82 275,81 276,80 277,79 278,80 279,81 280,82 281,83 282,82 283,81 284,82 285,83 286,82 287,81 288,80 289,79 290,80 291,79 292,80 293,79 294,80 295,81 296,82 297,81 298,82 299,83 300,82 301,81 302,82 303,83 304,84 305,83 306,82 307,81 308,82 309,81 310,82 311,81 312,82 313,81 314,80 315,79 316,78 317,79 318,80 319,81 320,82 321,83 322,82 323,81 324,80 325,81 326,80 327,81 328,82 329,81 330,82 331,81 332,80 333,81 334,82 335,81 336,80 337,81 338,82 339,81 340,82 341,81 342,80 343,79 344,78 345,77 346,76 347,77 348,76 349,77 350,76 351,75 352,74 353,73 354,74 355,73 356,72 357,73 358,74 359,73 360,74 361,73 362,72 363,73 364,72 365,73 366,74 367,73 368,74 369,73 370,72 371,73 372,74 373,73 374,72 375,73 376,72 377,73 378,74 379,75 380,74 381,73 382,74 383,73 384,72 385,73 386,74 387,73 388,72 389,71 390,72 391,73 392,74 393,73 394,74 395,73 396,74 397,75 398,76 399,77 400,200 " style="fill:rgb(141,10,244);stroke:rgb(41,0,144)"></polygon><polygon points="0,200 0,100 1,99 2,100 3,101 4,102 5,101 6,102 7,103 8,102 9,101 10,100 11,101 12,100 13,99 14,100 15,99 16,98 17,97 18,98 19,97 20,98 21,99 22,100 23,99 24,98 25,99 26,100 27,101 28,100 29,99 30,100 31,99 32,100 33,101 34,102 35,101 36,102 37,101 38,100 39,101 40,100 41,101 42,102 43,103 44,102 45,103 46,104 47,103 48,102 49,101 50,102 51,101 52,102 53,103 54,102 55,103 56,102 57,101 58,102 59,103 60,102 61,101 62,100 63,99 64,100 65,101 66,100 67,99 68,98 69,99 70,98 71,97 72,96 73,95 74,94 75,95 76,96 77,95 78,96 79,97 80,98 81,97 82,98 83,99 84,100 85,101 86,102 87,101 88,102 89,103 90,102 91,101 92,100 93,99 94,98 95,97 96,98 97,97 98,96 99,97 100,96 101,97 102,96 103,95 104,94 105,93 106,94 107,93 108,92 109,93 110,94 111,95 112,96 113,97 114,96 115,95 116,94 117,95 118,96 119,95 120,96 121,97 122,96 123,97 124,96 125,95 126,94 127,93 128,92 129,93 130,92 131,93 132,92 133,91 134,90 135,89 136,90 137,89 138,88 139,87 140,86 141,85 142,86 143,87 144,88 145,89 146,88 147,87 148,86 149,85 150,86 151,85 152,86 153,85 154,84 155,85 156,84 157,83 158,82 159,81 160,80 161,79 162,80 163,81 164,82 165,83 166,82 167,83 168,82 169,81 170,80 171,81 172,82 173,83 174,84 175,83 176,84 177,83 178,84 179,85 180,86 181,85 182,86 183,85 184,84 185,83 186,82 187,81 188,80 189,81 190,80 191,79 192,80 193,81 194,82 195,81 196,82 197,83 198,84 199,85 200,86 201,85 202,84 203,83 204,84 205,83 206,84 207,83 208,84 209,85 210,84 211,83 212,82 213,81 214,82 215,81 216,82 217,83 218,82 219,81 220,82 221,81 222,82 223,81 224,80 225,79 226,78 227,77 228,76 229,75 230,74 231,75 232,74 233,75 234,74 235,73 236,74 237,73 238,74 239,75 240,76 241,77 242,76 243,75 244,74 245,75 246,74 247,75 248,74 249,73 250,74 251,73 252,74 253,75 254,74 255,75 256,74 257,75 258,76 259,77 260,76 261,75 262,76 263,75 264,74 265,75 266,74 267,75 268,76 269,77 270,76 271,75 272,76 273,75 274,76 275,75 276,76 277,77 278,76 279,75 280,76 281,75 282,74 283,73 284,72 285,71 286,72 287,73 288,74 289,73 290,72 291,71 292,70 293,69 294,68 295,67 296,66 297,67 298,68 299,69 300,70 301,69 302,68 303,67 304,68 305,67 306,68 307,69 308,70 309,69 310,68 311,69 312,70 313,71 314,70 315,69 316,70 317,69 318,68 319,67 320,68 321,67 322,68 323,67 324,68 325,69 326,70 327,71 328,70 329,69 330,70 331,71 332,72 333,73 334,72 335,73 336,72 337,71 338,72 339,71 340,72 341,73 342,74 343,73 344,72 345,71 346,72 347,71 348,72 349,73 350,72 351,73 352,74 353,75 354,74 355,75 356,76 357,77 358,76 359,77 360,76 361,75 362,76 363,75 364,76 365,75 366,74 367,75 368,74 369,75 370,74 371,75 372,74 373,73 374,74 375,73 376,74 377,75 378,76 379,75 380,74 381,73 382,72 383,73 384,74 385,73 386,74 387,75 388,76 389,77 390,78 391,79 392,80 393,81 394,80 395,79 396,80 397,81 398,80 399,81 400,200 " style="fill:rgb(118,15,6);stroke:rgb(18,0,0)"></polygon></svg>